<svg width="473" height="574" viewBox="0 0 473 574" fill="none" xmlns="http://www.w3.org/2000/svg">
<ellipse cx="188.323" cy="478.506" rx="94.6313" ry="93.6736" transform="rotate(90 188.323 478.506)" fill="white" fill-opacity="0.1"/>
<ellipse cx="378.611" cy="286.67" rx="95.1584" ry="94.1954" transform="rotate(90 378.611 286.67)" fill="white" fill-opacity="0.1"/>
<path opacity="0.1" d="M94.6494 96.3529C94.6494 108.849 97.0858 121.223 101.82 132.768C106.553 144.314 113.492 154.804 122.239 163.64C130.985 172.476 141.369 179.486 152.798 184.268C164.226 189.05 176.475 191.511 188.845 191.511C201.215 191.511 213.463 189.05 224.892 184.268C236.32 179.486 246.704 172.476 255.451 163.64C264.198 154.804 271.136 144.314 275.87 132.768C280.604 121.223 283.04 108.849 283.04 96.3529L188.845 96.3529L94.6494 96.3529Z" fill="white"/>
<path opacity="0.1" d="M0.000411987 381.995C12.4186 381.995 24.7152 379.525 36.1881 374.724C47.6611 369.923 58.0856 362.886 66.8666 354.015C75.6476 345.145 82.6131 334.614 87.3653 323.023C92.1175 311.433 94.5635 299.011 94.5635 286.466C94.5635 273.92 92.1175 261.498 87.3653 249.908C82.613 238.318 75.6476 227.787 66.8666 218.916C58.0856 210.045 47.661 203.008 36.1881 198.208C24.7152 193.407 12.4186 190.936 0.000372565 190.936L0.00040372 286.466L0.000411987 381.995Z" fill="white"/>
<rect opacity="0.2" x="283.717" y="190.996" width="190.996" height="189.065" transform="rotate(90 283.717 190.996)" fill="white"/>
<path d="M472.779 381.992L372.057 480.96L283.717 572.988L283.717 381.992L472.779 381.992Z" fill="white" fill-opacity="0.15"/>
<path d="M283.717 190.996L384.439 92.0283L472.78 2.2776e-06L472.78 190.996L283.717 190.996Z" fill="white" fill-opacity="0.15"/>
</svg>
