<svg width="20" height="20" viewBox="0 0 20 20" fill="none" xmlns="http://www.w3.org/2000/svg">
<path fill-rule="evenodd" clip-rule="evenodd" d="M10.0002 8V10H12.0002C12.0002 9.46957 11.7895 8.96086 11.4144 8.58579C11.0393 8.21071 10.5306 8 10.0002 8ZM10.0002 4V6C12.2062 6 14.0002 7.794 14.0002 10H16.0002C16.0002 8.4087 15.368 6.88258 14.2428 5.75736C13.1176 4.63214 11.5915 4 10.0002 4ZM10.0002 0V2C14.4112 2 18.0002 5.589 18.0002 10H20.0002C20.0002 4.477 15.5232 0 10.0002 0ZM14.6522 18.234C14.6412 18.265 14.6402 18.27 14.6522 18.234ZM14.1172 15.578C13.4222 15.204 12.7192 14.778 11.9922 14.481C10.5872 13.908 10.6822 15.602 9.67917 16.151C9.02717 16.508 8.10717 15.861 7.53817 15.503C6.53431 14.862 5.65172 14.0484 4.93117 13.1C4.55617 12.613 3.72817 11.697 3.83017 11.014C3.99217 9.93 5.27417 9.876 4.90717 8.55C4.71117 7.84 4.36017 7.141 4.09717 6.457C3.74517 5.54 3.60017 4.953 2.57317 5.003C1.83117 5.039 1.33917 5.356 0.883175 5.951C-0.350825 7.558 -0.164825 9.725 0.664174 11.488C1.83817 13.983 3.85017 16.335 5.99917 17.855C7.46117 18.889 9.38717 19.828 11.1572 19.987C12.4532 20.104 14.2662 19.403 14.7302 17.996L14.8112 17.751L14.7312 17.993C15.1392 16.753 15.1892 16.155 14.1172 15.578ZM14.8112 17.751C14.8192 17.727 14.8192 17.725 14.8112 17.751Z" fill="#718096"/>
</svg>
