<svg width="32" height="24" viewBox="0 0 32 24" fill="none" xmlns="http://www.w3.org/2000/svg">
<path opacity="0.587821" d="M23.9998 6.66699C26.2089 6.66699 27.9998 8.45785 27.9998 10.667C27.9996 12.876 26.2088 14.667 23.9998 14.667C21.7909 14.6668 19.9999 12.8759 19.9998 10.667C19.9998 8.45796 21.7908 6.66717 23.9998 6.66699ZM11.9998 0C14.9452 0 17.3336 2.38764 17.3337 5.33301C17.3337 8.27853 14.9453 10.667 11.9998 10.667C9.05439 10.6668 6.66675 8.27842 6.66675 5.33301C6.66692 2.38775 9.0545 0.000175999 11.9998 0Z" fill="#8280FF"/>
<path d="M11.9775 13.333C18.3612 13.333 23.6062 16.3905 23.9971 22.9326C24.0126 23.1932 23.9967 24 22.9951 24H0.969727C0.635251 23.9996 -0.0271669 23.2782 0.000976562 22.9316C0.517924 16.5683 5.68252 13.3331 11.9775 13.333ZM23.4688 16.002C28.0104 16.0518 31.7188 18.3466 31.998 23.1992C32.0093 23.3947 31.9978 24 31.2744 24H26.1338C26.1338 20.9993 25.1417 18.23 23.4688 16.002Z" fill="#8280FF"/>
</svg>
