<svg width="38" height="38" viewBox="0 0 38 38" fill="none" xmlns="http://www.w3.org/2000/svg">
<g clip-path="url(#clip0_536_8955)">
<path d="M38 19C38 8.50659 29.4934 0 19 0C8.50659 0 0 8.50659 0 19C0 29.4934 8.50659 38 19 38C29.4934 38 38 29.4934 38 19Z" fill="#718096"/>
<path d="M15.0428 19C15.0428 16.814 16.8145 15.0413 19.0005 15.0413C21.1865 15.0413 22.9591 16.814 22.9591 19C22.9591 21.186 21.1865 22.9587 19.0005 22.9587C16.8145 22.9587 15.0428 21.186 15.0428 19ZM12.9028 19C12.9028 22.3678 15.6327 25.0977 19.0005 25.0977C22.3682 25.0977 25.0981 22.3678 25.0981 19C25.0981 15.6323 22.3682 12.9023 19.0005 12.9023C15.6327 12.9023 12.9028 15.6323 12.9028 19ZM23.9145 12.6606C23.9144 12.9424 23.9979 13.2179 24.1544 13.4523C24.3109 13.6867 24.5334 13.8694 24.7937 13.9774C25.054 14.0854 25.3406 14.1138 25.617 14.0589C25.8935 14.004 26.1474 13.8683 26.3468 13.6692C26.5462 13.47 26.682 13.2161 26.7371 12.9397C26.7922 12.6633 26.764 12.3768 26.6563 12.1163C26.5486 11.8559 26.366 11.6333 26.1317 11.4766C25.8974 11.32 25.622 11.2362 25.3402 11.2361C24.9624 11.2363 24.5995 11.3864 24.3323 11.6535C24.0651 11.9206 23.9148 12.2828 23.9145 12.6606ZM14.203 28.6659C13.0453 28.6132 12.416 28.4204 11.9977 28.2574C11.4433 28.0416 11.0477 27.7846 10.6319 27.3692C10.2159 26.9539 9.95847 26.5587 9.74361 26.0043C9.58061 25.5863 9.38776 24.9568 9.33511 23.799C9.27756 22.5473 9.266 22.1713 9.266 19.0001C9.266 15.8289 9.27851 15.454 9.33511 14.2012C9.38783 13.0434 9.58211 12.4152 9.74361 11.996C9.95942 11.4415 10.2165 11.046 10.6319 10.63C11.0472 10.2141 11.4424 9.95663 11.9977 9.74177C12.4157 9.57877 13.0453 9.38592 14.203 9.33328C15.4547 9.27572 15.8307 9.26424 19.0005 9.26424C22.1702 9.26424 22.5467 9.27667 23.7994 9.33328C24.9571 9.386 25.5854 9.58027 26.0047 9.74177C26.5591 9.95663 26.9547 10.2147 27.3705 10.63C27.7865 11.0453 28.043 11.4415 28.2588 11.996C28.4218 12.414 28.6146 13.0434 28.6673 14.2012C28.7248 15.454 28.7364 15.8289 28.7364 19.0001C28.7364 22.1713 28.7248 22.5463 28.6673 23.799C28.6146 24.9568 28.4208 25.586 28.2588 26.0043C28.043 26.5587 27.7859 26.9543 27.3705 27.3692C26.9552 27.7842 26.5591 28.0416 26.0047 28.2574C25.5867 28.4205 24.9571 28.6134 23.7994 28.6659C22.5477 28.7236 22.1717 28.735 19.0005 28.735C15.8293 28.735 15.4543 28.7236 14.203 28.6659ZM14.1047 7.19692C12.8405 7.25449 11.9767 7.45494 11.2223 7.74849C10.441 8.05165 9.77963 8.45833 9.11867 9.11818C8.45778 9.77803 8.05213 10.4405 7.74897 11.2218C7.45542 11.9767 7.25497 12.84 7.1974 14.1042C7.13888 15.3704 7.12549 15.7751 7.12549 19C7.12549 22.2249 7.13888 22.6296 7.1974 23.8958C7.25497 25.1601 7.45542 26.0234 7.74897 26.7782C8.05213 27.559 8.45786 28.2222 9.11867 28.8818C9.77947 29.5414 10.441 29.9475 11.2223 30.2515C11.9781 30.545 12.8405 30.7455 14.1047 30.8031C15.3715 30.8607 15.7756 30.875 19.0005 30.875C22.2253 30.875 22.6301 30.8616 23.8963 30.8031C25.1606 30.7455 26.0238 30.545 26.7787 30.2515C27.5595 29.9475 28.2213 29.5417 28.8823 28.8818C29.5432 28.222 29.948 27.559 30.252 26.7782C30.5455 26.0234 30.7469 25.16 30.8036 23.8958C30.8612 22.6287 30.8745 22.2249 30.8745 19C30.8745 15.7751 30.8612 15.3704 30.8036 14.1042C30.746 12.8399 30.5455 11.9762 30.252 11.2218C29.948 10.441 29.5422 9.77914 28.8823 9.11818C28.2225 8.4573 27.5595 8.05165 26.7796 7.74849C26.0238 7.45494 25.1604 7.25354 23.8973 7.19692C22.6311 7.13935 22.2263 7.125 19.0014 7.125C15.7766 7.125 15.3715 7.1384 14.1047 7.19692Z" fill="white"/>
</g>
<defs>
<clipPath id="clip0_536_8955">
<rect width="38" height="38" fill="white"/>
</clipPath>
</defs>
</svg>
