<svg width="38" height="38" viewBox="0 0 38 38" fill="none" xmlns="http://www.w3.org/2000/svg">
<g clip-path="url(#clip0_536_9712)">
<path d="M19 37.9996C29.4934 37.9996 38 29.493 38 18.9996C38 8.50622 29.4934 -0.000366211 19 -0.000366211C8.50659 -0.000366211 0 8.50622 0 18.9996C0 29.493 8.50659 37.9996 19 37.9996Z" fill="#718096"/>
<path d="M30.3525 20.5286V28.3618H25.811V21.0535C25.811 19.2185 25.1553 17.9653 23.5109 17.9653C22.2561 17.9653 21.5106 18.809 21.1814 19.6259C21.0618 19.9179 21.031 20.3233 21.031 20.7328V28.3615H16.4892C16.4892 28.3615 16.5501 15.9836 16.4892 14.7024H21.0314V16.638C21.0222 16.6532 21.0094 16.6681 21.0012 16.6827H21.0314V16.638C21.6349 15.7093 22.7113 14.3816 25.1245 14.3816C28.1124 14.3816 30.3525 16.3338 30.3525 20.5286ZM11.738 8.11816C10.1844 8.11816 9.16797 9.13797 9.16797 10.4778C9.16797 11.7893 10.1549 12.8385 11.6784 12.8385H11.7078C13.2919 12.8385 14.2768 11.7893 14.2768 10.4778C14.2467 9.13797 13.2919 8.11816 11.738 8.11816ZM9.43791 28.3618H13.9781V14.7024H9.43791V28.3618Z" fill="#F1F2F2"/>
</g>
<defs>
<clipPath id="clip0_536_9712">
<rect width="38" height="38" fill="white"/>
</clipPath>
</defs>
</svg>
